<?xml version="1.0" encoding="utf-8"?>
<!-- Generator: Adobe Illustrator 15.1.0, SVG Export Plug-In . SVG Version: 6.00 Build 0)  -->
<!DOCTYPE svg PUBLIC "-//W3C//DTD SVG 1.1//EN" "http://www.w3.org/Graphics/SVG/1.1/DTD/svg11.dtd">
<svg version="1.1" id="Layer_1" xmlns="http://www.w3.org/2000/svg" xmlns:xlink="http://www.w3.org/1999/xlink" x="0px" y="0px" viewBox="143.445 156.14 538 180" enable-background="new 143.445 156.14 538 264"
	 xml:space="preserve">
<g>
	<path fill="#00adef" d="M281.507,293.288v-23.972c0-10.984-6.751-19.443-19.647-19.443h-37.997
		c0,29.296,20.235,26.558,20.235,32.688v8.182c0,5.289-0.833,9.089-12.461,9.089c-21.77,0-39.103-13.73-39.103-45.224
		c0-27.483,19.661-41.839,41.417-41.839c22.418,0,35.726,5.909,43.335,12.875h1.061v-14.575c0-16.275-14.589-31.065-43.323-31.065
		c-51.361,0-82.646,34.666-82.646,77.984c0,45.222,34.666,74.59,75.881,74.59C266.509,332.577,281.507,317.382,281.507,293.288
		 M361.609,312.302v-13.95h-8.872c-11.205,0-16.909-3.171-16.909-13.521v-84.323c0-19.655-8.456-27.681-25.997-27.681h-14.152
		v117.917c0,27.473,18.387,40.16,39.732,40.16C348.081,330.903,361.609,326.458,361.609,312.302 M412.126,186.561
		c0-10.991-9.301-19.869-20.924-19.869s-21.137,8.877-21.137,19.869c0,10.985,9.514,19.864,21.137,19.864
		S412.126,197.546,412.126,186.561 M410.22,330.903c0.668,0,1.317-0.024,1.968-0.044v-91.071c-1.06-17.584-8.947-23.22-30.078-23.22
		h-9.926v76.293C372.184,320.327,388.874,330.903,410.22,330.903 M509.636,273.845c0,18.168-6.562,27.889-19.023,27.889
		c-14.583,0-25.146-9.307-25.146-32.12c0-17.756,9.073-28.959,19.862-28.959C499.704,240.655,509.636,247.839,509.636,273.845
		 M549.576,268.339v-67.407c0-19.661-8.67-28.106-24.733-28.106H510.48v52.405c-4.228-9.096-15.219-15.642-30.015-15.642
		c-30.861,0-54.945,24.301-54.945,63.396c0,31.492,26.412,59.591,60.655,59.591C532.451,332.577,549.576,310.403,549.576,268.339
		 M637.28,251.643c0,5.08-3.375,8.04-22.397,8.04h-15.637c1.048-11.215,6.979-20.295,21.138-20.295
		C632.001,239.387,637.28,245.718,637.28,251.643 M674.483,256.082c0-29.593-23.668-46.692-54.101-46.692
		c-35.928,0-59.811,28.732-59.811,64.021c0,32.133,21.133,59.166,61.274,59.166c33.188,0,49.765-14.85,49.765-29.634V290.84h-1.481
		c-6.551,4.426-11.548,11.738-41.305,11.738c-16.683,0-26.197-5.486-28.533-17.121h17.341
		C656.942,285.458,674.483,279.337,674.483,256.082"/>
</g>
</svg>
